. 
  
http://www.torrenting.com/        :     Greatest Movie Tracker on The Net!!!
 
http://www.Torrenting.com          :     Once & For all ;)


               www . Torrenting . Com 

(((((((((((((= Enjoy No RAR releases =))))))))))))))))))))


...................................NFO:....................................

.The Warrior's Way 2010 PPVRiP XviD - iLLUSiON
Description     
 
 
Movie Info
Plot: A warrior-assassin is forced to hide in a small town in the 
American Badlands after refusing a mission.

IMDB: http://www.imdb.com/title/tt1032751/
IMDB Rating: 6.3
Trailer:
  
http://leetleech.org/images/39485342038810374737.jpg 
http://leetleech.org/images/39485342038810374737.jpg 
http://leetleech.org/images/26779046649976183681.jpg
 
General Info
Size: 1.01GB
Format: AVI
Runtime: 1:38:51
 
Sources
Video - The Warriors Way (2010) PPVRIP IFLIX
Audio - The Warriors Way (2010) PPVRIP IFLIX
(THANKS)
 
 
Video Info
ID                               : 0
Format                           : MPEG-4 Visual
Format profile                   : Advanced Simple@L5
Format settings, BVOP            : Yes
Format settings, QPel            : No
Format settings, GMC             : No warppoints
Format settings, Matrix          : Default (H.263)
Muxing mode                      : Packed bitstream
Codec ID                         : XVID
Codec ID/Hint                    : XviD
Duration                         : 1h 38mn
Bit rate                         : 1 327 Kbps
Width                            : 640 pixels
Height                           : 368 pixels
Display aspect ratio             : 16:9
Frame rate                       : 29.970 fps
Color space                      : YUV
Chroma subsampling               : 4:2:0
Bit depth                        : 8 bits
Scan type                        : Progressive
Compression mode                 : Lossy
Bits/(Pixel*Frame)               : 0.188
Stream size                      : 938 MiB (90%)
Writing library                  : XviD 1.0.3 (UTC 2004-12-20)
 
 
 
Audio Info
ID                               : 1
Format                           : MPEG Audio
Format version                   : Version 1
Format profile                   : Layer 3
Mode                             : Joint stereo
Mode extension                   : MS Stereo
Codec ID                         : 55
Codec ID/Hint                    : MP3
Duration                         : 1h 38mn
Bit rate mode                    : Constant
Bit rate                         : 128 Kbps
Channel(s)                       : 2 channels
Sampling rate                    : 44.1 KHz
Compression mode                 : Lossy
Stream size                      : 90.3 MiB (9%)
Alignment                        : Split accross interleaves
Interleave, duration             : 33 ms (1.00 video frame)
Interleave, preload duration     : 500 ms
 
 
Encoders Notes
I made an avs script to crop, resize & sharpen.
I dropped that into vdubmod.
Thier i denoised, lowered the brightness & saturation.
Then i increased the contrast & changed the colors with a RGB EQ.
After encoding, i watched it on a 52inch TV,
its prety good, deffinatley watchable.
The black box in the corner is annoying but you get use to it.
The colors are off, i tried my best but there still not great.
The DVD is due on the 28th March.
Download the sample first to check that your happy with the quality.
Enjoy...
 
 
I am looking for;
Cammers, Cams, Screeners (any type), Cam audio, Line audio,
Un-released R6's R5's R4's R2's R1's,
A 25GB+ FTP server, A Windows Server
& a syncer.
If you can provide any of these please
contact me at illusion@hushmail.me